FFmpeg version SVN-r25716, Copyright (c) 2000-2010 the FFmpeg developers  built on Nov 10 2010 12:23:18 with gcc 4.1.2 20080704 (Red Hat 4.1.2-48)  configuration: --enable-libmp3lame --enable-shared --disable-mmx --arch=x86_64  libavutil     50.33. 0 / 50.33. 0  libavcore      0.12. 1 /  0.12. 1  libavcodec    52.94. 4 / 52.94. 4  libavformat   52.84. 0 / 52.84. 0  libavdevice   52. 2. 2 / 52. 2. 2  libavfilter    1.59. 0 /  1.59. 0  libswscale     0.12. 0 /  0.12. 0Input #0, avi, from '/RAID10/data/converted_video_files/47370.avi':  Duration: 00:00:07.60, start: 0.000000, bitrate: 20977 kb/s    Stream #0.0: Video: msvideo1, rgb555le, 1024x1024, 20 tbr, 20 tbn, 20 tbc[buffer @ 0x1e5c490] w:1024 h:1024 pixfmt:rgb555le[ffsink @ 0x1e5b920] auto-inserting filter 'auto-inserted scaler 0' between the filter 'src' and the filter 'out'[scale @ 0x1e5a820] w:1024 h:1024 fmt:rgb555le -> w:1024 h:1024 fmt:yuv420p flags:0x4Output #0, flv, to '/RAID10/data/converted_video_files/47370.flv':  Metadata:    encoder         : Lavf52.84.0    Stream #0.0: Video: flv, yuv420p, 1024x1024, q=2-31, 600 kb/s, 1k tbn, 24 tbcStream mapping:  Stream #0.0 -> #0.0Press [q] to stop encodingframe=    8 fps=  0 q=6.3 size=     737kB time=0.37 bitrate=16133.7kbits/s    frame=   14 fps= 11 q=14.3 size=     922kB time=0.71 bitrate=10663.7kbits/s    frame=   23 fps= 13 q=24.8 size=     993kB time=1.12 bitrate=7235.7kbits/s    frame=   34 fps= 15 q=31.0 size=    1030kB time=1.71 bitrate=4939.6kbits/s    frame=   42 fps= 15 q=31.0 size=    1073kB time=2.08 bitrate=4218.4kbits/s    frame=   49 fps= 15 q=31.0 size=    1116kB time=2.46 bitrate=3716.9kbits/s    frame=   56 fps= 14 q=31.0 size=    1131kB time=2.79 bitrate=3318.6kbits/s    frame=   64 fps= 15 q=31.0 size=    1172kB time=3.21 bitrate=2991.2kbits/s    frame=   74 fps= 15 q=31.0 size=    1219kB time=3.71 bitrate=2693.5kbits/s    frame=   83 fps= 15 q=24.8 size=    1264kB time=4.12 bitrate=2511.6kbits/s    frame=   94 fps= 16 q=31.0 size=    1291kB time=4.71 bitrate=2246.5kbits/s    frame=  104 fps= 16 q=31.0 size=    1339kB time=5.21 bitrate=2106.3kbits/s    frame=  112 fps= 16 q=31.0 size=    1382kB time=5.58 bitrate=2027.8kbits/s    frame=  121 fps= 16 q=31.0 size=    1426kB time=6.04 bitrate=1932.9kbits/s    frame=  131 fps= 16 q=24.8 size=    1474kB time=6.54 bitrate=1846.0kbits/s    frame=  140 fps= 16 q=31.0 size=    1496kB time=7.00 bitrate=1750.8kbits/s    frame=  151 fps= 17 q=31.0 size=    1545kB time=7.54 bitrate=1678.2kbits/s    frame=  152 fps= 17 q=31.0 Lsize=    1547kB time=7.58 bitrate=1671.3kbits/s    video:1544kB audio:0kB global headers:0kB muxing overhead 0.167053%